<?xml version="1.0" encoding="utf-8"?>
<!-- Generator: Adobe Illustrator 17.0.0, SVG Export Plug-In . SVG Version: 6.00 Build 0)  -->
<!DOCTYPE svg PUBLIC "-//W3C//DTD SVG 1.1//EN" "http://www.w3.org/Graphics/SVG/1.1/DTD/svg11.dtd">
<svg xmlns="http://www.w3.org/2000/svg" x="0px" y="0px"
width="100" height="100"
viewBox="0 0 172 172"
style=" fill:#000000;"><g transform=""><g fill="none" fill-rule="nonzero" stroke="none" stroke-width="1" stroke-linecap="butt" stroke-linejoin="miter" stroke-miterlimit="10" stroke-dasharray="" stroke-dashoffset="0" font-family="none" font-weight="none" font-size="none" text-anchor="none" style="mix-blend-mode: normal"><path d="M0,172v-172h172v172z" fill="none"></path><g fill="#000000"><path d="M64.57874,8.08875c-14.5125,0 -28.80937,6.88084 -37.65125,19.67334c-6.96062,10.05125 -9.56813,22.17376 -7.36438,34.18689c1.1825,6.5575 3.73961,12.65729 7.44836,17.95166l4.91833,81.48584c0.26875,4.43438 4.03041,7.92603 8.54541,7.92603c4.32688,0 7.98229,-3.19686 8.49292,-7.44311l3.86853,-53.13061c0.34937,-2.95625 2.93126,-5.19129 5.96814,-5.19129c3.25187,0 5.88101,2.47208 6.01538,5.61646l4.8396,52.16479c0.18813,4.48813 3.87231,7.98376 8.41418,7.98376c4.38063,0 7.9802,-3.25061 8.35645,-7.44311l6.745,-46.35937c0.29563,-2.31125 2.36374,-4.0575 4.75561,-4.0575c2.4725,0 4.59836,1.88083 4.81336,4.27271l4.29895,45.92896c0.40312,4.38063 4.0323,7.65832 8.46668,7.65832c4.46125,0 8.17042,-3.41418 8.49292,-7.7948l4.99707,-68.90393c0,-1.34375 -0.05522,-2.66252 -0.16272,-3.95252c17.97938,-0.48375 32.41272,-12.36313 32.41272,-26.84875c0,-0.00269 -0.11388,-1.17981 -0.29395,-2.6875c-0.09406,-0.78206 -0.20719,-1.65466 -0.32544,-2.49854c0,-0.02687 0.00063,-0.05711 -0.02624,-0.08398c-1.10188,-7.8475 -3.86853,-23.02956 -9.24353,-31.89831c-0.72562,-1.1825 -1.91001,-1.93248 -3.28064,-2.12061c-1.37062,-0.16125 -2.71206,0.31851 -3.67956,1.28601l-8.35645,10.87598c-0.27681,0.36281 -0.7111,0.56265 -1.16528,0.51965c-2.01562,-0.18544 -5.65584,-0.2677 -7.22266,-0.2677c-1.53188,0 -5.05431,0.07983 -7.09143,0.2572c-0.54019,0.04838 -1.04993,-0.18939 -1.38049,-0.61939l-8.27246,-10.76575c-0.9675,-0.9675 -2.30894,-1.44726 -3.67956,-1.28601c-1.37062,0.18813 -2.55501,0.93811 -3.28064,2.12061c-2.76813,4.59563 -4.86144,10.88585 -6.39331,16.9596c-8.19687,-4.27312 -17.52628,-6.66626 -27.3894,-6.66626c-14.48562,0 -27.33082,7.01668 -35.2052,17.82043c0.16125,-5.61687 1.9604,-11.10105 5.21228,-15.83105c5.72438,-8.2775 14.97021,-12.73938 24.37646,-12.73938c5.77813,0 11.63751,1.7179 16.77063,5.23853c1.3975,0.9675 2.98627,1.42773 4.5719,1.42773c2.55313,0 5.07601,-1.21211 6.63477,-3.46961c2.52625,-3.655 1.61313,-8.68041 -2.04187,-11.20666c-7.92812,-5.4825 -16.9598,-8.08875 -25.90918,-8.08875zM64.57874,13.46375c8.19688,0 16.09812,2.44667 22.84375,7.12292c0.80625,0.56438 1.04792,1.31855 1.12854,1.72168c0.05375,0.43 0.10771,1.23625 -0.45667,2.01563c-0.48375,0.72563 -1.31246,1.15479 -2.19934,1.15479c-0.37625,0 -0.94147,-0.08042 -1.53272,-0.45667c-5.85875,-4.05812 -12.71482,-6.20959 -19.80982,-6.20959c-11.5025,0 -22.27664,5.64207 -28.78039,15.0752c-5.32125,7.65937 -7.30895,16.96001 -5.6427,26.12439c0.05375,0.29563 0.10309,0.59146 0.18371,0.88708c0.59125,2.92938 1.55959,5.7227 2.87646,8.35645c0.61812,-2.74125 1.56211,-5.37479 2.77148,-7.84729c6.10062,-12.47 19.15789,-21.09582 34.20789,-21.09582c9.51375,0 18.43688,2.44562 26.17688,6.71875c0.77938,0.40313 1.53146,0.83375 2.25708,1.3175c0.91375,0.5375 1.80125,1.13043 2.66126,1.72168c0.59125,0.43 1.18355,0.85601 1.74792,1.28601c10.105,7.71313 17.30708,18.87024 19.72583,31.63586l0.72436,5.47998c0.1075,1.31688 0.16272,2.63564 0.16272,3.95251l-4.97082,68.72022c-0.13438,1.55875 -1.50479,2.79248 -3.14417,2.79248c-1.6125,0 -2.95667,-1.18124 -3.11792,-2.73999l-4.29895,-45.9552c-0.45687,-5.21375 -4.84086,-9.16479 -10.16211,-9.16479c-5.07937,0 -9.40562,3.73164 -10.10437,8.67664l-6.745,46.5221c-0.13437,1.47813 -1.44894,2.66125 -3.00769,2.66125c-1.63938,0 -2.98543,-1.23373 -3.03918,-2.79248l-4.8396,-52.19629c-0.24188,-6.04687 -5.23601,-10.77624 -11.39038,-10.77624c-5.77813,0 -10.64565,4.2769 -11.29065,9.92065l-3.89478,53.13061c-0.18812,1.55875 -1.53167,2.71375 -3.14417,2.71375c-1.69313,0 -3.08979,-1.26397 -3.17041,-2.87646l-4.48791,-74.38916l-0.54065,-8.68189c-1.88125,-2.4725 -3.46688,-5.16063 -4.70312,-8.03625c-1.23625,-2.84875 -2.17562,-5.83146 -2.73999,-8.97583c-1.935,-10.58875 0.37604,-21.28164 6.50354,-30.15039c7.525,-10.88437 19.93894,-17.36377 33.24207,-17.36377zM107.95667,28.46021l9.32227,11.85754c0.344,0.43537 0.88205,0.65483 1.43298,0.59839c1.43244,-0.14513 3.87676,-0.24994 4.64539,-0.33594c1.3975,-0.18812 2.85295,-0.2677 4.3042,-0.2677c1.45125,0 2.90145,0.07957 4.29895,0.2677c0.77132,0.086 3.23894,0.19107 4.68213,0.32544c0.54556,0.05106 1.06811,-0.17364 1.40674,-0.60364l9.30652,-11.8418c2.33812,4.24625 4.11061,9.99561 5.42749,15.53186v0.03149c1.20937,5.02562 3.09168,16.28394 3.09168,17.78894v0.2677c-0.18813,11.58313 -12.46748,20.99043 -27.65185,21.2323c-1.47428,-8.91194 -5.05867,-17.13934 -10.20935,-24.1875h6.59277c0.86806,0 1.50089,-0.81225 1.29126,-1.65344l-1.20202,-4.81336c-0.62888,-2.5155 -2.89179,-4.2832 -5.48523,-4.2832h-0.96057v-2.6875h-5.375l1.34375,2.6875h-2.32532c-0.86806,0 -1.50089,0.81225 -1.29126,1.65344l0.2467,0.98682c-1.3288,-1.24552 -2.71376,-2.43473 -4.15723,-3.55359c-1.37062,-1.10187 -2.76833,-2.09856 -4.24646,-3.03918l0.08398,-0.39893v-0.03149c1.31687,-5.53625 3.08936,-11.28561 5.42749,-15.53186zM142.4375,45.6875v2.6875h-0.96057c-2.59344,0 -4.85635,1.7677 -5.48523,4.2832l-1.20202,4.81336c-0.20963,0.84119 0.4232,1.65344 1.29126,1.65344h7.31714c2.59344,0 4.85635,-1.7677 5.48523,-4.2832l1.20202,-4.81336c0.20962,-0.84119 -0.4232,-1.65344 -1.29126,-1.65344h-2.32532l1.34375,-2.6875zM57.78125,53.75c-8.13124,0 -14.78125,6.65001 -14.78125,14.78125v4.03125c-0.01371,0.96921 0.49551,1.87072 1.33266,2.35932c0.83715,0.4886 1.87253,0.4886 2.70968,0c0.83715,-0.4886 1.34637,-1.39011 1.33266,-2.35932v-4.03125c0,-5.22564 4.18061,-9.40625 9.40625,-9.40625c5.22564,0 9.40625,4.18061 9.40625,9.40625v25.53125c-0.01371,0.96921 0.49551,1.87072 1.33266,2.35932c0.83715,0.4886 1.87253,0.4886 2.70968,0c0.83715,-0.4886 1.34637,-1.39011 1.33266,-2.35932v-25.53125c0,-8.13124 -6.65001,-14.78125 -14.78125,-14.78125zM128.41211,63.151c-1.34375,0 -2.00425,1.63946 -1.03406,2.57202l3.56934,3.43286c0.41388,0.40044 1.06891,0.40044 1.48548,0l3.56409,-3.43286c0.97019,-0.93256 0.30969,-2.57202 -1.03406,-2.57202zM57.78125,72.5625c-2.2264,0 -4.03125,1.80485 -4.03125,4.03125c0,2.2264 1.80485,4.03125 4.03125,4.03125c2.2264,0 4.03125,-1.80485 4.03125,-4.03125c0,-2.2264 -1.80485,-4.03125 -4.03125,-4.03125zM45.64551,80.58826c-1.4822,0.02317 -2.66581,1.242 -2.64551,2.72424v10.75c-0.01371,0.96921 0.49551,1.87072 1.33266,2.35932c0.83715,0.4886 1.87253,0.4886 2.70968,0c0.83715,-0.4886 1.34637,-1.39011 1.33266,-2.35932v-10.75c0.00995,-0.72643 -0.2746,-1.42595 -0.78881,-1.93917c-0.51421,-0.51322 -1.21427,-0.79642 -1.94068,-0.78507z"></path></g><path d="" fill="none"></path></g></g></svg>